# xmcd
#
# Track frame offsets:
#	150
#	19010
#	36085
#	53517
#	70370
#	84115
#	98855
#	118415
#	139265
#	156055
#	172150
#	192030
#	212257
#	233740
#	251092
#
# Disc length: 3593 seconds
#
# Revision: 1
# Processed by: cddbd v1.5.1PL0 Copyright (c) Steve Scherf et al.
# Submitted via: CDex 1.50Beta5
#
DISCID=c50e070f
DTITLE=Various Artist - NEW MUSIC BEST COLLECTION 17
DYEAR=1900
DGENRE=New Age
TTITLE0=五輪真弓/恋人よ
TTITLE1=五輪真弓/リバイバル
TTITLE2=堀江淳/メモリーグラス
TTITLE3=久保田早紀/異邦人
TTITLE4=渡辺真知子/迷い道
TTITLE5=渡辺真知子/かもめが翔んだ日
TTITLE6=岸田智史/きみの朝
TTITLE7=バンバン/「いちご白書」をもう一度
TTITLE8=村下孝蔵/初恋
TTITLE9=南佳孝/モンロー・ウォーク
TTITLE10=上田正樹/悲しい色やね
TTITLE11=ばんばひろふみ/SACHIKO
TTITLE12=大滝詠一/君は天然色
TTITLE13=大滝詠一/さらばシベリア鉄道
TTITLE14=海援隊/贈る言葉
EXTD=
EXTT0=
EXTT1=
EXTT2=
EXTT3=
EXTT4=
EXTT5=
EXTT6=
EXTT7=
EXTT8=
EXTT9=
EXTT10=
EXTT11=
EXTT12=
EXTT13=
EXTT14=
PLAYORDER=
